<svg width="58" height="58" viewBox="0 0 58 58" fill="none" xmlns="http://www.w3.org/2000/svg">
<g filter="url(#filter0_dd_5833_31877)">
<circle cx="29" cy="19" r="17" fill="white"/>
<circle cx="29" cy="19" r="16.5" stroke="black" stroke-linecap="round"/>
</g>
<mask id="mask0_5833_31877" style="mask-type:alpha" maskUnits="userSpaceOnUse" x="18" y="14" width="6" height="10">
<path d="M22.6154 14.6666L23.3334 15.3407L19.4359 19L23.3334 22.6592L22.6154 23.3333L18.718 19.6741L18 19L18.718 18.3259L22.6154 14.6666Z" fill="black"/>
</mask>
<g mask="url(#mask0_5833_31877)">
<path d="M22.6154 14.6667L23.3334 15.3408L19.4359 19L23.3334 22.6593L22.6154 23.3333L18.718 19.6741L18 19L18.718 18.3259L22.6154 14.6667Z" fill="black"/>
</g>
<mask id="mask1_5833_31877" style="mask-type:alpha" maskUnits="userSpaceOnUse" x="34" y="14" width="6" height="10">
<path d="M35.3846 14.6666L34.6666 15.3407L38.5641 19L34.6666 22.6592L35.3846 23.3333L39.282 19.6741L40 19L39.282 18.3259L35.3846 14.6666Z" fill="black"/>
</mask>
<g mask="url(#mask1_5833_31877)">
<path d="M35.3846 14.6667L34.6666 15.3408L38.5641 19L34.6666 22.6593L35.3846 23.3333L39.282 19.6741L40 19L39.282 18.3259L35.3846 14.6667Z" fill="black"/>
</g>
<defs>
<filter id="filter0_dd_5833_31877" x="0" y="0" width="58" height="58" filterUnits="userSpaceOnUse" color-interpolation-filters="sRGB">
<feFlood flood-opacity="0" result="BackgroundImageFix"/>
<feColorMatrix in="SourceAlpha" type="matrix" values="0 0 0 0 0 0 0 0 0 0 0 0 0 0 0 0 0 0 127 0" result="hardAlpha"/>
<feMorphology radius="4" operator="erode" in="SourceAlpha" result="effect1_dropShadow_5833_31877"/>
<feOffset dy="4"/>
<feGaussianBlur stdDeviation="3"/>
<feColorMatrix type="matrix" values="0 0 0 0 0.0627451 0 0 0 0 0.0941176 0 0 0 0 0.156863 0 0 0 0.1 0"/>
<feBlend mode="normal" in2="BackgroundImageFix" result="effect1_dropShadow_5833_31877"/>
<feColorMatrix in="SourceAlpha" type="matrix" values="0 0 0 0 0 0 0 0 0 0 0 0 0 0 0 0 0 0 127 0" result="hardAlpha"/>
<feMorphology radius="3" operator="erode" in="SourceAlpha" result="effect2_dropShadow_5833_31877"/>
<feOffset dy="10"/>
<feGaussianBlur stdDeviation="7.5"/>
<feColorMatrix type="matrix" values="0 0 0 0 0.0627451 0 0 0 0 0.0941176 0 0 0 0 0.156863 0 0 0 0.1 0"/>
<feBlend mode="normal" in2="effect1_dropShadow_5833_31877" result="effect2_dropShadow_5833_31877"/>
<feBlend mode="normal" in="SourceGraphic" in2="effect2_dropShadow_5833_31877" result="shape"/>
</filter>
</defs>
</svg>
